<?xml version="1.0" standalone="no"?>
<!DOCTYPE svg PUBLIC "-//W3C//DTD SVG 20010904//EN"
 "http://www.w3.org/TR/2001/REC-SVG-20010904/DTD/svg10.dtd">
<svg version="1.0" xmlns="http://www.w3.org/2000/svg"
 width="1376.000000pt" height="768.000000pt" viewBox="0 0 1376.000000 768.000000"
 preserveAspectRatio="xMidYMid meet">

<g transform="translate(0.000000,768.000000) scale(0.100000,-0.100000)"
fill="#000000" stroke="none">
<path d="M5259 6104 c-323 -69 -575 -327 -644 -659 -12 -58 -15 -211 -15 -902
l0 -833 364 0 c200 0 387 4 416 10 59 11 230 14 363 5 59 -3 86 -2 82 5 -4 6
4 10 19 10 14 0 30 8 35 18 6 9 11 11 11 5 0 -7 5 -13 11 -13 5 0 7 5 4 10 -3
6 -2 10 3 10 5 0 28 18 52 40 23 22 54 47 67 55 13 9 21 20 18 25 -4 6 -2 10
4 10 5 0 17 23 26 50 11 34 22 50 34 50 9 0 22 5 29 12 14 14 52 21 52 9 0 -4
10 -6 23 -4 16 3 33 -5 54 -24 47 -44 74 -53 105 -37 24 12 26 18 22 68 -2 30
0 58 6 61 5 3 7 12 4 20 -3 8 2 29 11 47 9 18 20 64 25 103 6 38 13 88 16 110
3 22 7 51 9 65 3 31 12 56 31 92 8 15 17 62 20 105 3 43 10 96 16 118 6 22 13
48 15 57 1 9 10 36 19 60 8 24 24 83 35 132 16 77 24 93 55 122 40 38 68 43
97 17 15 -13 18 -14 12 -3 -8 13 -6 13 7 2 9 -7 20 -28 24 -45 4 -18 15 -47
25 -66 10 -19 16 -37 14 -41 -7 -12 -8 -84 -1 -139 7 -53 21 -98 57 -178 18
-40 22 -103 7 -103 -4 0 -4 -10 1 -22 5 -13 5 -33 0 -45 -11 -30 36 -101 70
-106 26 -4 26 -4 -2 -6 -25 -1 -27 -3 -16 -22 6 -12 7 -19 1 -15 -5 3 -9 -18
-9 -52 1 -37 -3 -56 -10 -55 -7 2 -11 -6 -10 -17 1 -11 5 -20 8 -20 4 0 6 -11
3 -25 -2 -14 0 -25 6 -25 5 0 10 -5 10 -10 0 -6 11 -23 25 -38 16 -17 21 -30
15 -36 -17 -17 -11 -36 10 -36 19 0 19 -2 -5 -45 -24 -43 -27 -95 -5 -95 5 0
7 -11 4 -25 -3 -15 2 -32 11 -41 8 -9 15 -34 16 -57 2 -144 9 -241 17 -246 8
-6 23 -36 27 -56 1 -5 3 -13 3 -18 1 -4 13 0 26 9 27 17 41 52 51 129 4 28 11
52 15 55 4 3 9 19 11 35 2 17 7 35 11 41 5 6 10 38 12 70 2 33 7 73 11 89 12
48 64 145 81 152 13 5 13 7 2 14 -10 7 -9 9 5 9 9 0 17 4 17 9 0 5 9 11 20 14
11 3 18 2 15 -3 -2 -4 13 -4 35 0 22 4 40 3 40 -1 0 -5 3 -8 8 -8 54 9 93 -37
117 -136 10 -44 19 -83 19 -86 1 -4 21 -23 46 -43 25 -20 51 -41 58 -47 9 -7
92 -13 225 -16 117 -2 246 -6 287 -9 41 -4 279 -8 528 -10 l452 -5 0 830 c0
674 -3 843 -14 903 -54 280 -243 512 -505 618 -154 63 -70 60 -1768 59 -1299
0 -1559 -3 -1614 -15z m1748 -1990 c-3 -3 -12 -4 -19 -1 -8 3 -5 6 6 6 11 1
17 -2 13 -5z m-1287 -223 c0 -50 -4 -93 -10 -96 -6 -4 -10 28 -10 89 0 57 4
96 10 96 6 0 10 -36 10 -89z m2240 -6 c0 -57 -4 -95 -10 -95 -6 0 -10 38 -10
95 0 57 4 95 10 95 6 0 10 -38 10 -95z m-3201 -6 c-3 -111 -19 -110 -19 1 0
61 3 89 10 85 7 -4 10 -39 9 -86z m440 -16 c1 -34 -3 -65 -9 -68 -6 -4 -10 27
-9 87 1 104 16 88 18 -19z m3371 17 c0 -53 -4 -90 -10 -90 -6 0 -10 37 -10 90
0 53 4 90 10 90 6 0 10 -37 10 -90z m440 -1 c0 -57 -4 -88 -10 -84 -5 3 -10
44 -10 91 0 49 4 84 10 84 6 0 10 -37 10 -91z m-3380 -35 c0 -24 -4 -44 -10
-44 -5 0 -10 23 -10 51 0 31 4 48 10 44 6 -3 10 -26 10 -51z m170 0 c0 -34 -4
-53 -10 -49 -18 11 -12 105 7 105 2 0 3 -25 3 -56z m90 1 c0 -30 -4 -55 -10
-55 -5 0 -10 25 -10 55 0 30 5 55 10 55 6 0 10 -25 10 -55z m1900 0 c0 -24 -4
-47 -10 -50 -6 -4 -10 15 -10 50 0 35 4 54 10 50 6 -3 10 -26 10 -50z m80 5
c0 -27 -4 -50 -10 -50 -11 0 -14 83 -3 93 12 12 13 8 13 -43z m-3200 -5 c0
-25 -4 -45 -10 -45 -5 0 -10 20 -10 45 0 25 5 45 10 45 6 0 10 -20 10 -45z
m167 -32 c-2 -16 -4 -3 -4 27 0 30 2 43 4 28 2 -16 2 -40 0 -55z m93 32 c0
-25 -4 -45 -10 -45 -11 0 -14 73 -3 83 11 12 13 8 13 -38z m90 0 c0 -25 -4
-45 -10 -45 -5 0 -10 20 -10 45 0 25 5 45 10 45 6 0 10 -20 10 -45z m90 0 c0
-25 -4 -45 -10 -45 -5 0 -10 20 -10 45 0 25 5 45 10 45 6 0 10 -20 10 -45z
m170 -6 c0 -27 -4 -48 -9 -45 -4 3 -7 16 -6 28 1 13 3 33 4 46 2 43 11 21 11
-29z m90 6 c0 -25 -4 -45 -10 -45 -5 0 -10 20 -10 45 0 25 5 45 10 45 6 0 10
-20 10 -45z m90 -6 c0 -31 -4 -48 -10 -44 -5 3 -10 26 -10 51 0 24 5 44 10 44
6 0 10 -23 10 -51z m80 0 c0 -31 -4 -48 -10 -44 -5 3 -10 26 -10 51 0 24 5 44
10 44 6 0 10 -23 10 -51z m2510 6 c0 -25 -4 -45 -10 -45 -5 0 -10 20 -10 45 0
25 5 45 10 45 6 0 10 -20 10 -45z m77 -32 c-2 -16 -4 -3 -4 27 0 30 2 43 4 28
2 -16 2 -40 0 -55z m93 27 c0 -27 -4 -50 -10 -50 -5 0 -10 23 -10 50 0 28 5
50 10 50 6 0 10 -22 10 -50z m90 0 c0 -21 -4 -42 -10 -45 -6 -4 -10 13 -10 45
0 32 4 49 10 45 6 -3 10 -24 10 -45z m80 -1 c0 -31 -4 -48 -10 -44 -11 7 -13
54 -4 79 10 27 14 18 14 -35z m90 6 c0 -25 -4 -45 -8 -45 -10 0 -15 68 -6 81
10 17 14 8 14 -36z m180 -6 c0 -21 -4 -39 -10 -39 -5 0 -10 21 -10 46 0 27 4
43 10 39 6 -3 10 -24 10 -46z m77 -26 c-2 -16 -4 -3 -4 27 0 30 2 43 4 28 2
-16 2 -40 0 -55z m90 10 c-2 -16 -4 -5 -4 22 0 28 2 40 4 28 2 -13 2 -35 0
-50z m90 0 c-2 -16 -4 -5 -4 22 0 28 2 40 4 28 2 -13 2 -35 0 -50z m183 17 c0
-22 -4 -40 -10 -40 -11 0 -14 63 -3 73 11 12 13 8 13 -33z"/>
<path d="M6811 4834 c0 -11 3 -14 6 -6 3 7 2 16 -1 19 -3 4 -6 -2 -5 -13z"/>
<path d="M6684 4093 c-7 -2 -10 -13 -7 -23 4 -14 0 -20 -11 -20 -10 0 -13 -6
-10 -15 4 -8 1 -15 -5 -15 -6 0 -8 -7 -5 -15 4 -8 1 -22 -5 -29 -7 -8 -8 -17
-3 -20 10 -6 9 -36 -2 -54 -4 -7 -8 -35 -8 -62 1 -27 -4 -52 -10 -56 -7 -4 -5
-9 3 -15 11 -7 11 -9 -1 -9 -15 0 -17 -7 -25 -90 -2 -25 -5 -46 -6 -47 -1 -2
-2 -6 -3 -10 -1 -5 -8 -25 -15 -46 -7 -21 -10 -45 -7 -53 3 -8 2 -13 -3 -10
-8 6 -51 -73 -51 -93 0 -18 -53 -51 -83 -51 -48 0 -94 21 -109 49 -7 14 -15
28 -18 31 -6 6 -28 74 -33 105 -2 11 -9 19 -15 17 -7 -1 -15 6 -19 15 -4 10
-9 20 -12 23 -3 3 -11 14 -17 25 -16 29 -48 30 -91 1 -20 -14 -40 -22 -43 -17
-3 5 -13 3 -23 -4 -13 -9 -15 -14 -5 -17 7 -3 -5 -11 -27 -18 -35 -12 -156
-15 -235 -5 -14 1 -41 4 -60 5 l-35 2 30 8 c17 4 -228 8 -542 9 l-573 1 0
-644 c0 -706 1 -723 59 -872 85 -216 277 -395 511 -476 l95 -33 1605 0 c1805
0 1653 -6 1827 76 199 95 347 264 424 486 l34 98 3 683 3 682 -550 0 c-302 0
-551 -4 -553 -9 -9 -25 -433 -37 -513 -14 -101 28 -120 28 -138 0 -9 -14 -19
-36 -23 -51 -3 -14 -17 -37 -31 -52 -13 -14 -26 -38 -28 -53 -2 -14 -7 -48
-10 -76 -9 -63 -24 -115 -35 -115 -4 0 -10 -17 -13 -37 -18 -127 -33 -200 -44
-211 -7 -7 -13 -20 -13 -28 0 -9 -8 -39 -17 -67 -15 -46 -18 -49 -23 -27 -6
23 -7 21 -15 -15 -4 -22 -9 -71 -10 -108 -2 -68 -3 -70 -49 -114 -37 -35 -52
-44 -69 -38 -12 3 -27 7 -34 7 -7 1 -10 5 -7 9 2 4 0 10 -5 13 -4 3 -11 19
-14 36 -4 16 -13 30 -21 30 -18 0 -34 70 -41 185 -7 116 -14 155 -29 152 -7
-1 -11 26 -11 90 0 50 -2 90 -6 88 -3 -2 -11 17 -19 43 -7 26 -20 53 -27 60
-16 16 -17 54 -2 69 16 16 2 143 -16 143 -7 0 -15 10 -18 21 -5 17 -11 20 -30
15 -21 -5 -26 -2 -30 20 -3 16 0 27 9 30 8 2 21 6 30 9 25 8 6 25 -29 26 l-32
1 33 14 c17 8 33 20 33 27 6 47 4 84 -4 94 -5 7 -7 20 -5 30 2 10 -3 23 -11
29 -12 9 -16 37 -18 114 -2 75 -7 108 -18 120 -8 9 -15 21 -15 26 0 5 5 2 10
-6 5 -8 10 -10 10 -5 0 17 -14 32 -26 28z m-2014 -632 c0 -22 -4 -43 -10 -46
-6 -4 -10 12 -10 39 0 25 5 46 10 46 6 0 10 -18 10 -39z m85 -56 c1 -47 -2
-85 -7 -85 -4 0 -8 41 -8 92 0 114 13 108 15 -7z m82 28 c-2 -16 -4 -5 -4 22
0 28 2 40 4 28 2 -13 2 -35 0 -50z m90 0 c-2 -16 -4 -5 -4 22 0 28 2 40 4 28
2 -13 2 -35 0 -50z m93 22 c0 -25 -4 -45 -10 -45 -5 0 -10 20 -10 45 0 25 5
45 10 45 6 0 10 -20 10 -45z m90 0 c0 -25 -4 -45 -10 -45 -5 0 -10 20 -10 45
0 25 5 45 10 45 6 0 10 -20 10 -45z m90 -45 c0 -53 -4 -90 -10 -90 -6 0 -10
37 -10 90 0 53 4 90 10 90 6 0 10 -37 10 -90z m77 23 c-2 -16 -4 -5 -4 22 0
28 2 40 4 28 2 -13 2 -35 0 -50z m93 22 c0 -25 -4 -45 -10 -45 -5 0 -10 20
-10 45 0 25 5 45 10 45 6 0 10 -20 10 -45z m90 0 c0 -25 -4 -45 -10 -45 -5 0
-10 20 -10 45 0 25 5 45 10 45 6 0 10 -20 10 -45z m80 -1 c0 -27 -4 -43 -10
-39 -17 11 -11 85 7 85 2 0 3 -21 3 -46z m90 1 c0 -25 -4 -45 -10 -45 -5 0
-10 20 -10 45 0 25 5 45 10 45 6 0 10 -20 10 -45z m90 -45 c0 -53 -4 -90 -10
-90 -6 0 -10 37 -10 90 0 53 4 90 10 90 6 0 10 -37 10 -90z m77 23 c-2 -16 -4
-5 -4 22 0 28 2 40 4 28 2 -13 2 -35 0 -50z m93 22 c0 -25 -4 -45 -10 -45 -5
0 -10 20 -10 45 0 25 5 45 10 45 6 0 10 -20 10 -45z m90 -11 c0 -34 -4 -53
-10 -49 -5 3 -10 28 -10 56 0 27 5 49 10 49 6 0 10 -25 10 -56z m1630 1 c0
-30 -4 -55 -10 -55 -5 0 -10 25 -10 55 0 30 5 55 10 55 6 0 10 -25 10 -55z
m90 5 c0 -27 -4 -50 -10 -50 -5 0 -10 23 -10 50 0 28 5 50 10 50 6 0 10 -22
10 -50z m90 11 c0 -22 -4 -43 -10 -46 -6 -4 -10 12 -10 39 0 25 5 46 10 46 6
0 10 -18 10 -39z m80 -6 c0 -25 -4 -45 -10 -45 -5 0 -10 20 -10 45 0 25 5 45
10 45 6 0 10 -20 10 -45z m90 -45 c0 -53 -4 -90 -10 -90 -6 0 -10 37 -10 90 0
53 4 90 10 90 6 0 10 -37 10 -90z m90 45 c0 -25 -4 -45 -10 -45 -5 0 -10 20
-10 45 0 25 5 45 10 45 6 0 10 -20 10 -45z m77 -22 c-2 -16 -4 -5 -4 22 0 28
2 40 4 28 2 -13 2 -35 0 -50z m93 22 c0 -25 -4 -45 -10 -45 -5 0 -10 20 -10
45 0 25 5 45 10 45 6 0 10 -20 10 -45z m82 -12 l-10 -38 -1 50 c-1 36 2 46 10
38 8 -8 8 -22 1 -50z m85 -10 c-2 -16 -4 -5 -4 22 0 28 2 40 4 28 2 -13 2 -35
0 -50z m93 22 c0 -25 -4 -45 -8 -45 -4 0 -7 17 -6 38 1 45 3 52 9 52 3 0 5
-20 5 -45z m90 -45 c0 -53 -4 -90 -10 -90 -6 0 -10 37 -10 90 0 53 4 90 10 90
6 0 10 -37 10 -90z m90 45 c0 -25 -4 -45 -10 -45 -5 0 -10 20 -10 45 0 25 5
45 10 45 6 0 10 -20 10 -45z m77 -22 c-2 -16 -4 -5 -4 22 0 28 2 40 4 28 2
-13 2 -35 0 -50z m90 0 c-2 -16 -4 -5 -4 22 0 28 2 40 4 28 2 -13 2 -35 0 -50z
m90 0 c-2 -16 -4 -5 -4 22 0 28 2 40 4 28 2 -13 2 -35 0 -50z m93 -23 c0 -53
-4 -90 -10 -90 -6 0 -10 37 -10 90 0 53 4 90 10 90 6 0 10 -37 10 -90z m89 43
c-1 -47 -1 -48 -11 -16 -6 18 -8 39 -5 47 11 29 17 17 16 -31z"/>
<path d="M5768 3583 c7 -3 16 -2 19 1 4 3 -2 6 -13 5 -11 0 -14 -3 -6 -6z"/>
<path d="M7077 3412 c3 -7 9 -10 12 -5 3 4 10 11 15 15 4 4 -1 6 -12 5 -12 -1
-18 -6 -15 -15z"/>
</g>
</svg>
